<svg xmlns="http://www.w3.org/2000/svg" version="1.0" width="144.000000pt" height="136.000000pt" viewBox="0 0 144.000000 136.000000" preserveAspectRatio="xMidYMid meet">
<g transform="translate(0.000000,136.000000) scale(0.100000,-0.100000)" fill="#000000" stroke="none">
<path d="M512 1130 c-15 -26 -23 -30 -60 -30 -32 0 -49 -6 -67 -25 l-25 -24 0 -391 0 -392 29 -29 29 -29 317 0 c344 0 359 2 384 57 7 16 11 149 11 394 0 446 2 439 -106 439 -31 0 -44 4 -44 14 0 8 -7 22 -16 30 -13 14 -48 16 -225 16 l-210 0 -17 -30z m426 -52 l-3 -53 -190 -2 c-123 -1 -194 2 -202 9 -16 13 -17 70 -1 86 9 9 68 12 206 12 l193 0 -3 -52z m-440 -38 c7 -49 10 -50 241 -50 234 0 241 2 241 53 0 27 1 28 47 25 39 -2 50 -7 60 -28 10 -19 13 -116 13 -388 l0 -363 -25 -24 -24 -25 -308 0 c-263 0 -312 2 -331 16 l-22 15 0 384 c0 430 -2 419 69 413 30 -2 37 -7 39 -28z"/>
<path d="M697 890 c-182 -5 -200 -7 -213 -24 -11 -16 -14 -68 -14 -253 0 -219 1 -234 20 -253 29 -29 49 -31 272 -28 264 4 248 -7 248 171 0 114 -2 128 -15 117 -12 -10 -15 -37 -15 -126 0 -102 -2 -114 -19 -124 -12 -6 -102 -10 -225 -10 -173 0 -207 2 -220 16 -14 13 -16 50 -16 244 0 163 3 231 12 236 6 4 112 8 235 9 150 2 228 6 236 14 8 8 2 11 -23 12 -19 0 -42 1 -50 2 -8 1 -104 0 -213 -3z"/>
<path d="M860 685 c-73 -74 -139 -135 -145 -135 -6 0 -29 18 -50 40 -43 44 -53 48 -62 24 -4 -10 14 -33 53 -70 32 -29 61 -54 65 -54 13 0 300 303 296 313 -8 26 -30 9 -157 -118z"/>
</g>
</svg>